<svg xmlns="http://www.w3.org/2000/svg" viewBox="0 0 24 24" shape-rendering="crispEdges">
  <!-- 仮スプライト: 本物のドット絵 PNG (engine.png) を置くと差し替わる -->
  <!-- 左シリンダー(フィン) -->
  <rect x="1" y="4" width="8" height="10" fill="#1a140e"/>
  <rect x="1" y="5" width="8" height="1" fill="#8d8d93"/>
  <rect x="1" y="7" width="8" height="1" fill="#8d8d93"/>
  <rect x="1" y="9" width="8" height="1" fill="#8d8d93"/>
  <rect x="1" y="11" width="8" height="1" fill="#8d8d93"/>
  <!-- 左ヘッドカバー -->
  <rect x="0" y="2" width="10" height="3" fill="#c9c9cf"/>
  <!-- 右シリンダー(フィン) -->
  <rect x="15" y="4" width="8" height="10" fill="#1a140e"/>
  <rect x="15" y="5" width="8" height="1" fill="#8d8d93"/>
  <rect x="15" y="7" width="8" height="1" fill="#8d8d93"/>
  <rect x="15" y="9" width="8" height="1" fill="#8d8d93"/>
  <rect x="15" y="11" width="8" height="1" fill="#8d8d93"/>
  <!-- 右ヘッドカバー -->
  <rect x="14" y="2" width="10" height="3" fill="#c9c9cf"/>
  <!-- 中央エアクリーナー -->
  <rect x="8" y="5" width="8" height="8" fill="#26201a"/>
  <rect x="9" y="6" width="6" height="6" fill="#17130f"/>
  <rect x="11" y="8" width="2" height="2" fill="#8d8d93"/>
  <!-- クランクケース -->
  <rect x="4" y="14" width="16" height="7" fill="#26201a"/>
  <rect x="3" y="15" width="18" height="5" fill="#1a140e"/>
  <!-- ダービーカバー -->
  <rect x="9" y="15" width="6" height="5" fill="#c9c9cf"/>
  <rect x="11" y="17" width="2" height="1" fill="#f96410"/>
  <!-- ボルト -->
  <rect x="5" y="16" width="1" height="1" fill="#8d8d93"/>
  <rect x="18" y="16" width="1" height="1" fill="#8d8d93"/>
  <rect x="5" y="19" width="1" height="1" fill="#8d8d93"/>
  <rect x="18" y="19" width="1" height="1" fill="#8d8d93"/>
</svg>
